<?xml version="1.0"?><svg width="640" height="480" xmlns="http://www.w3.org/2000/svg">
 <!-- Created with SVG-edit - http://svg-edit.googlecode.com/ -->
 <title>river blue</title>
 <g>
  <title>Layer 1</title>
  <path id="path7014" fill="#007fff" fill-rule="nonzero" d="m600.180969,264.196075c-11.924133,0 -30.779785,-18.741364 -40.97229,-39.182465c-10.658691,-21.315704 -11.452698,-38.579849 -23.90979,-38.579849c-12.324402,0 -11.052429,5.493408 -21.510986,26.809067c-10.392639,20.441101 -33.580353,39.182495 -45.571167,39.182495c-11.990753,0 -25.689026,2.487152 -36.01416,-17.952759c-10.526093,-21.316849 -22.409119,-44.507584 -34.73349,-44.507584c-12.457092,0 -19.915802,19.618317 -30.507813,40.933975c-10.192474,20.441101 -28.381805,26.23465 -40.372589,26.23465c-11.924103,0 -24.248505,1.26889 -34.50769,-19.17218c-10.591278,-21.315674 -19.516968,-37.402771 -31.840607,-37.402771c-12.457794,0 -23.582077,12.555862 -34.107376,33.871552c-10.259216,20.441071 -18.851303,27.411743 -30.775406,27.411743c-12.057541,0 -27.24765,-3.439453 -37.57283,-23.880524c-10.459335,-21.315674 -25.315903,-40.935181 -37.706261,-40.935181c-12.324379,0 -21.315948,17.26535 -31.84127,38.581024c-10.258904,20.441101 -24.715988,30.942963 -36.706871,30.942963l0.733116,-61.840057c11.990883,0 23.515511,-11.972015 33.774414,-32.120026c10.525322,-21.316818 22.449348,-33.872711 34.773727,-33.872711c12.390366,0 24.314453,12.555893 34.773804,33.872711c10.325165,20.14801 21.849716,32.120026 33.907257,32.120026c11.924103,0 23.448639,-11.972015 33.707855,-32.120026c10.525299,-21.316818 22.38269,-33.872711 34.8405,-33.872711c12.323639,0 24.181763,12.555893 34.773071,33.872711c10.259186,20.14801 21.850464,32.120026 33.774567,32.120026c11.990784,0 23.582062,-11.972015 33.774536,-32.120026c10.592041,-21.316818 22.449432,-33.872711 34.906525,-33.872711c12.324371,0 24.181763,12.555893 34.707062,33.872711c10.325928,20.14801 21.850464,32.120026 33.841278,32.120026c11.990784,0 23.448639,-11.972015 33.841248,-32.120026c10.458649,-21.316818 22.382721,-33.872711 34.707123,-33.872711c12.457092,0 24.247742,12.555893 34.906494,33.872711c10.192444,20.14801 21.717041,32.120026 33.641113,32.120026l-0.733093,59.485901z"/>
 </g>
</svg>